G75*
%MOIN*%
%OFA0B0*%
%FSLAX24Y24*%
%IPPOS*%
%LPD*%
%AMOC8*
5,1,8,0,0,1.08239X$1,22.5*
%
%ADD10OC8,0.0480*%
%ADD11C,0.0600*%
%ADD12C,0.0480*%
%ADD13OC8,0.0540*%
%ADD14C,0.0270*%
%ADD15C,0.0060*%
D10*
X000680Y002930D03*
X002680Y002930D03*
X003930Y002930D03*
X006930Y002930D03*
X006930Y004055D03*
X007930Y004055D03*
X008305Y002555D03*
X009305Y002555D03*
X007930Y007055D03*
X006930Y007055D03*
D11*
X008880Y007430D02*
X009480Y007430D01*
X009480Y006430D02*
X008880Y006430D01*
X008880Y005430D02*
X009480Y005430D01*
X009480Y004430D02*
X008880Y004430D01*
X001480Y004430D02*
X000880Y004430D01*
X000880Y005430D02*
X001480Y005430D01*
X001480Y006430D02*
X000880Y006430D01*
X000880Y007430D02*
X001480Y007430D01*
D12*
X002680Y007295D02*
X002680Y006815D01*
X003680Y006815D02*
X003680Y007295D01*
X004680Y007295D02*
X004680Y006815D01*
X005680Y006815D02*
X005680Y007295D01*
X005680Y004295D02*
X005680Y003815D01*
X004680Y003815D02*
X004680Y004295D01*
X003680Y004295D02*
X003680Y003815D01*
X002680Y003815D02*
X002680Y004295D01*
D13*
X001180Y000805D03*
X002180Y000805D03*
X002180Y001805D03*
X001180Y001805D03*
D14*
X001680Y001305D03*
X003930Y004930D03*
X003320Y005540D03*
X005820Y005590D03*
X006555Y007430D03*
D15*
X006555Y007555D01*
X006680Y007680D01*
X008180Y007680D01*
X008430Y007430D01*
X009180Y007430D01*
X007930Y007055D02*
X005680Y007055D01*
X005180Y007555D02*
X005180Y006180D01*
X005305Y006055D01*
X005430Y006055D01*
X006180Y006055D01*
X006430Y005805D01*
X007055Y005180D01*
X007055Y005055D01*
X007055Y004430D01*
X007055Y004055D02*
X007305Y004055D01*
X007930Y004055D01*
X007305Y003430D01*
X004555Y003430D01*
X004305Y003430D01*
X003680Y004055D01*
X003180Y004555D02*
X003180Y004680D01*
X003180Y004555D02*
X003180Y003430D01*
X003055Y003305D01*
X002430Y003305D01*
X002305Y003180D01*
X002305Y002680D01*
X002430Y002555D01*
X002430Y002430D01*
X002305Y002305D01*
X002180Y002305D01*
X002055Y002430D01*
X002055Y002555D01*
X002180Y002680D01*
X002180Y004055D01*
X002055Y004180D01*
X001930Y004180D01*
X001805Y004055D01*
X001805Y002305D01*
X001680Y002180D01*
X001555Y002180D01*
X001430Y002305D01*
X001430Y003805D01*
X001305Y003930D01*
X001180Y003930D01*
X001055Y003805D01*
X001055Y002680D01*
X000805Y002430D01*
X000805Y002055D01*
X000805Y001430D01*
X000930Y001305D01*
X001680Y001305D01*
X002180Y001555D02*
X002180Y001805D01*
X002680Y002305D01*
X002680Y002930D01*
X003930Y002930D01*
X003180Y002305D02*
X007555Y002305D01*
X007680Y002430D01*
X007680Y002680D01*
X007430Y002930D01*
X006930Y002930D01*
X007555Y002055D02*
X008430Y002055D01*
X008305Y001930D02*
X007305Y001930D01*
X003430Y001930D01*
X002680Y001930D01*
X002555Y001805D01*
X002180Y001805D01*
X001180Y001805D01*
X000680Y001305D02*
X000680Y002930D01*
X000680Y003930D01*
X001180Y004430D01*
X001930Y004430D01*
X002180Y004680D01*
X002305Y004805D01*
X002555Y004805D01*
X003680Y004805D01*
X003805Y004680D01*
X005055Y004680D01*
X005680Y004055D01*
X006305Y004055D01*
X006555Y004305D01*
X006555Y005055D01*
X006020Y005590D01*
X005820Y005590D01*
X005780Y005550D01*
X005770Y005550D01*
X004750Y005550D01*
X003330Y005550D01*
X003320Y005540D01*
X001430Y007430D01*
X001180Y007430D01*
X003180Y007555D02*
X003180Y006555D01*
X003305Y006430D01*
X003305Y006055D01*
X003930Y004930D02*
X001680Y004930D01*
X001180Y005430D01*
X003180Y007555D02*
X003305Y007680D01*
X005055Y007680D01*
X005180Y007555D01*
X004680Y007055D02*
X004680Y006305D01*
X005055Y005930D01*
X006055Y005930D01*
X006180Y005805D01*
X006930Y005055D01*
X006930Y004055D01*
X008305Y005430D01*
X009180Y005430D01*
X007930Y007055D02*
X006930Y007055D01*
X008305Y002555D02*
X008680Y002555D01*
X008930Y002305D01*
X008930Y001430D01*
X008805Y001305D01*
X008305Y001305D01*
X003055Y001305D01*
X002930Y001180D02*
X008430Y001180D01*
X008430Y001181D02*
X008457Y001179D01*
X008483Y001173D01*
X008508Y001164D01*
X008532Y001151D01*
X008553Y001135D01*
X008572Y001116D01*
X008588Y001095D01*
X008601Y001071D01*
X008610Y001046D01*
X008616Y001020D01*
X008618Y000993D01*
X008616Y000966D01*
X008610Y000940D01*
X008601Y000915D01*
X008588Y000891D01*
X008572Y000870D01*
X008553Y000851D01*
X008532Y000835D01*
X008508Y000822D01*
X008483Y000813D01*
X008457Y000807D01*
X008430Y000805D01*
X002680Y000805D01*
X002555Y000930D01*
X002555Y001180D01*
X002430Y001305D01*
X002180Y001555D01*
X002930Y001680D02*
X002900Y001678D01*
X002870Y001673D01*
X002841Y001664D01*
X002814Y001651D01*
X002788Y001636D01*
X002764Y001617D01*
X002743Y001596D01*
X002724Y001572D01*
X002709Y001546D01*
X002696Y001519D01*
X002687Y001490D01*
X002682Y001460D01*
X002680Y001430D01*
X002682Y001400D01*
X002687Y001370D01*
X002696Y001341D01*
X002709Y001314D01*
X002724Y001288D01*
X002743Y001264D01*
X002764Y001243D01*
X002788Y001224D01*
X002814Y001209D01*
X002841Y001196D01*
X002870Y001187D01*
X002900Y001182D01*
X002930Y001180D01*
X003055Y001305D02*
X003034Y001307D01*
X003014Y001312D01*
X002996Y001320D01*
X002978Y001331D01*
X002963Y001345D01*
X002950Y001362D01*
X002941Y001380D01*
X002934Y001399D01*
X002930Y001420D01*
X002930Y001440D01*
X002934Y001461D01*
X002941Y001480D01*
X002950Y001498D01*
X002963Y001515D01*
X002978Y001529D01*
X002996Y001540D01*
X003014Y001548D01*
X003034Y001553D01*
X003055Y001555D01*
X004180Y001555D01*
X008430Y001555D01*
X008305Y001680D02*
X002930Y001680D01*
X003180Y002055D02*
X007555Y002055D01*
X008305Y001930D02*
X008326Y001928D01*
X008346Y001923D01*
X008364Y001915D01*
X008382Y001904D01*
X008397Y001890D01*
X008410Y001873D01*
X008419Y001855D01*
X008426Y001836D01*
X008430Y001815D01*
X008430Y001795D01*
X008426Y001774D01*
X008419Y001755D01*
X008410Y001737D01*
X008397Y001720D01*
X008382Y001706D01*
X008364Y001695D01*
X008346Y001687D01*
X008326Y001682D01*
X008305Y001680D01*
X008430Y001555D02*
X008460Y001557D01*
X008490Y001562D01*
X008519Y001571D01*
X008546Y001584D01*
X008572Y001599D01*
X008596Y001618D01*
X008617Y001639D01*
X008636Y001663D01*
X008651Y001689D01*
X008664Y001716D01*
X008673Y001745D01*
X008678Y001775D01*
X008680Y001805D01*
X008678Y001835D01*
X008673Y001865D01*
X008664Y001894D01*
X008651Y001921D01*
X008636Y001947D01*
X008617Y001971D01*
X008596Y001992D01*
X008572Y002011D01*
X008546Y002026D01*
X008519Y002039D01*
X008490Y002048D01*
X008460Y002053D01*
X008430Y002055D01*
X003180Y002055D02*
X003159Y002057D01*
X003139Y002062D01*
X003121Y002070D01*
X003103Y002081D01*
X003088Y002095D01*
X003075Y002112D01*
X003066Y002130D01*
X003059Y002149D01*
X003055Y002170D01*
X003055Y002190D01*
X003059Y002211D01*
X003066Y002230D01*
X003075Y002248D01*
X003088Y002265D01*
X003103Y002279D01*
X003121Y002290D01*
X003139Y002298D01*
X003159Y002303D01*
X003180Y002305D01*
X002180Y000805D02*
X001180Y000805D01*
X000680Y001305D01*
M02*
