G75*
%MOIN*%
%OFA0B0*%
%FSLAX24Y24*%
%IPPOS*%
%LPD*%
%AMOC8*
5,1,8,0,0,1.08239X$1,22.5*
%
%ADD10C,0.0030*%
%ADD11C,0.0080*%
D10*
X005540Y005268D02*
X005540Y005558D01*
X005395Y005558D01*
X005347Y005510D01*
X005347Y005413D01*
X005395Y005365D01*
X005540Y005365D01*
X005642Y005413D02*
X005642Y005607D01*
X005690Y005655D01*
X005787Y005655D01*
X005835Y005607D01*
X005835Y005413D01*
X005787Y005365D01*
X005690Y005365D01*
X005642Y005413D01*
X005246Y005413D02*
X005246Y005510D01*
X005197Y005558D01*
X005101Y005558D01*
X005052Y005510D01*
X005052Y005462D01*
X005246Y005462D01*
X005246Y005413D02*
X005197Y005365D01*
X005101Y005365D01*
X004951Y005365D02*
X004951Y005558D01*
X004806Y005558D01*
X004758Y005510D01*
X004758Y005365D01*
X003335Y005365D02*
X003335Y005655D01*
X003238Y005558D01*
X003142Y005655D01*
X003142Y005365D01*
X003040Y005413D02*
X003040Y005510D01*
X002992Y005558D01*
X002895Y005558D01*
X002847Y005510D01*
X002847Y005462D01*
X003040Y005462D01*
X003040Y005413D02*
X002992Y005365D01*
X002895Y005365D01*
D11*
X003775Y005075D02*
X004425Y005075D01*
X004442Y005077D01*
X004459Y005081D01*
X004475Y005088D01*
X004489Y005098D01*
X004502Y005111D01*
X004512Y005125D01*
X004519Y005141D01*
X004523Y005158D01*
X004525Y005175D01*
X004525Y005775D02*
X004523Y005792D01*
X004519Y005809D01*
X004512Y005825D01*
X004502Y005839D01*
X004489Y005852D01*
X004475Y005862D01*
X004459Y005869D01*
X004442Y005873D01*
X004425Y005875D01*
X003775Y005875D01*
X003758Y005873D01*
X003741Y005869D01*
X003725Y005862D01*
X003711Y005852D01*
X003698Y005839D01*
X003688Y005825D01*
X003681Y005809D01*
X003677Y005792D01*
X003675Y005775D01*
X003675Y005175D02*
X003677Y005158D01*
X003681Y005141D01*
X003688Y005125D01*
X003698Y005111D01*
X003711Y005098D01*
X003725Y005088D01*
X003741Y005081D01*
X003758Y005077D01*
X003775Y005075D01*
M02*
