%
M48
M72
T01C0.0130
T02C0.0320
T03C0.0360
T04C0.0400
%
T01
X1680Y1305
X3930Y4930
X3320Y5540
X5820Y5590
X6555Y7430
T02
X6930Y7055
X7930Y7055
X5680Y7055
X4680Y7055
X3680Y7055
X2680Y7055
X2680Y4055
X3680Y4055
X4680Y4055
X5680Y4055
X6930Y4055
X7930Y4055
X6930Y2930
X8305Y2555
X9305Y2555
X3930Y2930
X2680Y2930
X680Y2930
T03
X1180Y805
X2180Y805
X2180Y1805
X1180Y1805
T04
X1180Y4430
X1180Y5430
X1180Y6430
X1180Y7430
X9180Y7430
X9180Y6430
X9180Y5430
X9180Y4430
M30
