G75*
%MOIN*%
%OFA0B0*%
%FSLAX24Y24*%
%IPPOS*%
%LPD*%
%AMOC8*
5,1,8,0,0,1.08239X$1,22.5*
%
%ADD10OC8,0.0480*%
%ADD11C,0.0600*%
%ADD12C,0.0480*%
%ADD13OC8,0.0540*%
%ADD14C,0.0100*%
%ADD15R,0.0250X0.0500*%
%ADD16C,0.0060*%
%ADD17C,0.0270*%
D10*
X000680Y002930D03*
X002680Y002930D03*
X003930Y002930D03*
X006930Y002930D03*
X006930Y004055D03*
X007930Y004055D03*
X008305Y002555D03*
X009305Y002555D03*
X007930Y007055D03*
X006930Y007055D03*
D11*
X008880Y007430D02*
X009480Y007430D01*
X009480Y006430D02*
X008880Y006430D01*
X008880Y005430D02*
X009480Y005430D01*
X009480Y004430D02*
X008880Y004430D01*
X001480Y004430D02*
X000880Y004430D01*
X000880Y005430D02*
X001480Y005430D01*
X001480Y006430D02*
X000880Y006430D01*
X000880Y007430D02*
X001480Y007430D01*
D12*
X002680Y007295D02*
X002680Y006815D01*
X003680Y006815D02*
X003680Y007295D01*
X004680Y007295D02*
X004680Y006815D01*
X005680Y006815D02*
X005680Y007295D01*
X005680Y004295D02*
X005680Y003815D01*
X004680Y003815D02*
X004680Y004295D01*
X003680Y004295D02*
X003680Y003815D01*
X002680Y003815D02*
X002680Y004295D01*
D13*
X001180Y000805D03*
X002180Y000805D03*
X002180Y001805D03*
X001180Y001805D03*
D14*
X004030Y005555D02*
X004330Y005555D01*
D15*
X004380Y005555D03*
X003980Y005555D03*
D16*
X003335Y005555D01*
X003320Y005540D01*
X002680Y004900D01*
X002680Y004055D01*
X002305Y003680D02*
X002555Y003430D01*
X003055Y003430D01*
X003055Y005055D01*
X003180Y005180D01*
X003680Y005180D01*
X004430Y005180D01*
X004930Y005180D01*
X005180Y004930D01*
X005180Y004305D01*
X005180Y003430D01*
X005055Y003305D01*
X003805Y003305D01*
X003555Y003055D01*
X003180Y003055D01*
X003055Y002930D01*
X003055Y002680D01*
X003180Y002555D01*
X005305Y002555D01*
X006055Y003305D01*
X006305Y003555D01*
X006305Y004305D01*
X006305Y006680D01*
X006055Y006930D01*
X006055Y007180D01*
X006180Y007305D01*
X006305Y007305D01*
X006430Y007180D01*
X006430Y007055D01*
X006430Y003680D01*
X006680Y003430D01*
X007180Y003430D01*
X007430Y003680D01*
X007430Y004305D01*
X007305Y004430D01*
X006680Y004430D01*
X006555Y004555D01*
X006555Y004680D01*
X006680Y004805D01*
X006805Y004805D01*
X007305Y004805D01*
X007430Y004930D01*
X007430Y005055D01*
X007305Y005180D01*
X006680Y005180D01*
X006555Y005305D01*
X006555Y005430D01*
X006680Y005555D01*
X007305Y005555D01*
X007430Y005680D01*
X007430Y005805D01*
X007305Y005930D01*
X006680Y005930D01*
X006555Y006055D01*
X006555Y007430D01*
X006930Y007680D02*
X007305Y007680D01*
X007555Y007680D01*
X007805Y007680D01*
X007930Y007680D01*
X009180Y006430D01*
X007930Y005805D02*
X007930Y005680D01*
X009180Y004430D01*
X008430Y004180D02*
X009305Y003305D01*
X009305Y002555D01*
X009555Y001930D02*
X009680Y001930D01*
X009555Y001930D02*
X008055Y001930D01*
X008055Y001931D02*
X008041Y001929D01*
X008028Y001925D01*
X008016Y001917D01*
X008006Y001907D01*
X007998Y001895D01*
X007994Y001882D01*
X007992Y001868D01*
X007994Y001854D01*
X007998Y001841D01*
X008006Y001829D01*
X008016Y001819D01*
X008028Y001811D01*
X008041Y001807D01*
X008055Y001805D01*
X009555Y001805D01*
X009576Y001803D01*
X009596Y001798D01*
X009614Y001790D01*
X009632Y001779D01*
X009647Y001765D01*
X009660Y001748D01*
X009669Y001730D01*
X009676Y001711D01*
X009680Y001690D01*
X009680Y001670D01*
X009676Y001649D01*
X009669Y001630D01*
X009660Y001612D01*
X009647Y001595D01*
X009632Y001581D01*
X009614Y001570D01*
X009596Y001562D01*
X009576Y001557D01*
X009555Y001555D01*
X002680Y001555D01*
X002666Y001557D01*
X002653Y001561D01*
X002641Y001569D01*
X002631Y001579D01*
X002623Y001591D01*
X002619Y001604D01*
X002617Y001618D01*
X002619Y001632D01*
X002623Y001645D01*
X002631Y001657D01*
X002641Y001667D01*
X002653Y001675D01*
X002666Y001679D01*
X002680Y001681D01*
X002680Y001680D02*
X007805Y001680D01*
X007819Y001682D01*
X007832Y001686D01*
X007844Y001694D01*
X007854Y001704D01*
X007862Y001716D01*
X007866Y001729D01*
X007868Y001743D01*
X007866Y001757D01*
X007862Y001770D01*
X007854Y001782D01*
X007844Y001792D01*
X007832Y001800D01*
X007819Y001804D01*
X007805Y001806D01*
X007805Y001805D02*
X003180Y001805D01*
X003159Y001807D01*
X003139Y001812D01*
X003121Y001820D01*
X003103Y001831D01*
X003088Y001845D01*
X003075Y001862D01*
X003066Y001880D01*
X003059Y001899D01*
X003055Y001920D01*
X003055Y001940D01*
X003059Y001961D01*
X003066Y001980D01*
X003075Y001998D01*
X003088Y002015D01*
X003103Y002029D01*
X003121Y002040D01*
X003139Y002048D01*
X003159Y002053D01*
X003180Y002055D01*
X007805Y002055D01*
X007826Y002057D01*
X007846Y002062D01*
X007864Y002070D01*
X007882Y002081D01*
X007897Y002095D01*
X007910Y002112D01*
X007919Y002130D01*
X007926Y002149D01*
X007930Y002170D01*
X007930Y002190D01*
X007926Y002211D01*
X007919Y002230D01*
X007910Y002248D01*
X007897Y002265D01*
X007882Y002279D01*
X007864Y002290D01*
X007846Y002298D01*
X007826Y002303D01*
X007805Y002305D01*
X006680Y002305D01*
X003180Y002305D01*
X003166Y002307D01*
X003153Y002311D01*
X003141Y002319D01*
X003131Y002329D01*
X003123Y002341D01*
X003119Y002354D01*
X003117Y002368D01*
X003119Y002382D01*
X003123Y002395D01*
X003131Y002407D01*
X003141Y002417D01*
X003153Y002425D01*
X003166Y002429D01*
X003180Y002431D01*
X003180Y002430D02*
X005680Y002430D01*
X006180Y002930D01*
X005430Y002930D02*
X006180Y003680D01*
X006180Y006555D01*
X005680Y007055D01*
X006680Y006555D02*
X006680Y006180D01*
X006805Y006055D01*
X007430Y006055D01*
X007555Y005930D01*
X007555Y005555D01*
X007430Y005430D01*
X006805Y005430D01*
X006805Y005305D01*
X007430Y005305D01*
X007555Y005180D01*
X007555Y005055D01*
X007555Y004305D01*
X007680Y004305D01*
X007805Y004430D01*
X007805Y004555D01*
X007805Y004930D01*
X007680Y005055D01*
X007680Y006055D01*
X007555Y006180D01*
X006930Y006180D01*
X006805Y006305D01*
X006805Y006430D01*
X006930Y006555D01*
X007430Y006555D01*
X007680Y006555D01*
X007805Y006430D01*
X007805Y005555D01*
X008430Y004930D01*
X008430Y004180D01*
X007930Y005805D02*
X007930Y007055D01*
X007555Y006805D02*
X007430Y006680D01*
X006805Y006680D01*
X006680Y006555D01*
X007555Y006805D02*
X007555Y007640D01*
X007555Y007680D01*
X006930Y007680D02*
X004445Y007680D01*
X004320Y007680D01*
X003695Y007055D01*
X003680Y007055D01*
X002680Y007055D02*
X002680Y006555D01*
X002305Y006180D01*
X002305Y003680D01*
X002180Y003555D02*
X002180Y005930D01*
X002180Y006180D01*
X001930Y006430D01*
X001180Y006430D01*
X003930Y004930D02*
X004680Y004180D01*
X004680Y004055D01*
X003680Y004055D02*
X003680Y003430D01*
X003555Y003305D01*
X002430Y003305D01*
X002180Y003555D01*
X003930Y002930D02*
X005430Y002930D01*
X003430Y001055D02*
X002555Y001055D01*
X002430Y001180D01*
X001805Y001180D01*
X001680Y001305D01*
X002680Y001430D02*
X002659Y001428D01*
X002639Y001423D01*
X002621Y001415D01*
X002603Y001404D01*
X002588Y001390D01*
X002575Y001373D01*
X002566Y001355D01*
X002559Y001336D01*
X002555Y001315D01*
X002555Y001295D01*
X002559Y001274D01*
X002566Y001255D01*
X002575Y001237D01*
X002588Y001220D01*
X002603Y001206D01*
X002621Y001195D01*
X002639Y001187D01*
X002659Y001182D01*
X002680Y001180D01*
X009680Y001180D01*
X009680Y001181D02*
X009707Y001179D01*
X009733Y001173D01*
X009758Y001164D01*
X009782Y001151D01*
X009803Y001135D01*
X009822Y001116D01*
X009838Y001095D01*
X009851Y001071D01*
X009860Y001046D01*
X009866Y001020D01*
X009868Y000993D01*
X009866Y000966D01*
X009860Y000940D01*
X009851Y000915D01*
X009838Y000891D01*
X009822Y000870D01*
X009803Y000851D01*
X009782Y000835D01*
X009758Y000822D01*
X009733Y000813D01*
X009707Y000807D01*
X009680Y000805D01*
X009660Y000803D01*
X009641Y000799D01*
X009623Y000791D01*
X009607Y000781D01*
X009592Y000768D01*
X009579Y000753D01*
X009569Y000737D01*
X009561Y000719D01*
X009557Y000700D01*
X009555Y000680D01*
X009555Y000555D01*
X009553Y000534D01*
X009548Y000514D01*
X009540Y000496D01*
X009529Y000478D01*
X009515Y000463D01*
X009498Y000450D01*
X009480Y000441D01*
X009461Y000434D01*
X009440Y000430D01*
X009420Y000430D01*
X009399Y000434D01*
X009380Y000441D01*
X009362Y000450D01*
X009345Y000463D01*
X009331Y000478D01*
X009320Y000496D01*
X009312Y000514D01*
X009307Y000534D01*
X009305Y000555D01*
X009305Y000930D01*
X009303Y000951D01*
X009298Y000971D01*
X009290Y000989D01*
X009279Y001007D01*
X009265Y001022D01*
X009248Y001035D01*
X009230Y001044D01*
X009211Y001051D01*
X009190Y001055D01*
X009170Y001055D01*
X009149Y001051D01*
X009130Y001044D01*
X009112Y001035D01*
X009095Y001022D01*
X009081Y001007D01*
X009070Y000989D01*
X009062Y000971D01*
X009057Y000951D01*
X009055Y000930D01*
X009055Y000555D01*
X009056Y000555D02*
X009054Y000541D01*
X009050Y000528D01*
X009042Y000516D01*
X009032Y000506D01*
X009020Y000498D01*
X009007Y000494D01*
X008993Y000492D01*
X008979Y000494D01*
X008966Y000498D01*
X008954Y000506D01*
X008944Y000516D01*
X008936Y000528D01*
X008932Y000541D01*
X008930Y000555D01*
X008930Y000930D01*
X008928Y000951D01*
X008923Y000971D01*
X008915Y000989D01*
X008904Y001007D01*
X008890Y001022D01*
X008873Y001035D01*
X008855Y001044D01*
X008836Y001051D01*
X008815Y001055D01*
X008795Y001055D01*
X008774Y001051D01*
X008755Y001044D01*
X008737Y001035D01*
X008720Y001022D01*
X008706Y001007D01*
X008695Y000989D01*
X008687Y000971D01*
X008682Y000951D01*
X008680Y000930D01*
X008680Y000555D01*
X008678Y000534D01*
X008673Y000514D01*
X008665Y000496D01*
X008654Y000478D01*
X008640Y000463D01*
X008623Y000450D01*
X008605Y000441D01*
X008586Y000434D01*
X008565Y000430D01*
X008545Y000430D01*
X008524Y000434D01*
X008505Y000441D01*
X008487Y000450D01*
X008470Y000463D01*
X008456Y000478D01*
X008445Y000496D01*
X008437Y000514D01*
X008432Y000534D01*
X008430Y000555D01*
X008430Y000930D01*
X008431Y000930D02*
X008429Y000944D01*
X008425Y000957D01*
X008417Y000969D01*
X008407Y000979D01*
X008395Y000987D01*
X008382Y000991D01*
X008368Y000993D01*
X008354Y000991D01*
X008341Y000987D01*
X008329Y000979D01*
X008319Y000969D01*
X008311Y000957D01*
X008307Y000944D01*
X008305Y000930D01*
X008305Y000555D01*
X008303Y000534D01*
X008298Y000514D01*
X008290Y000496D01*
X008279Y000478D01*
X008265Y000463D01*
X008248Y000450D01*
X008230Y000441D01*
X008211Y000434D01*
X008190Y000430D01*
X008170Y000430D01*
X008149Y000434D01*
X008130Y000441D01*
X008112Y000450D01*
X008095Y000463D01*
X008081Y000478D01*
X008070Y000496D01*
X008062Y000514D01*
X008057Y000534D01*
X008055Y000555D01*
X008055Y000930D01*
X008053Y000950D01*
X008049Y000969D01*
X008041Y000987D01*
X008031Y001003D01*
X008018Y001018D01*
X008003Y001031D01*
X007987Y001041D01*
X007969Y001049D01*
X007950Y001053D01*
X007930Y001055D01*
X003430Y001055D01*
X002680Y001430D02*
X009680Y001430D01*
X009710Y001432D01*
X009740Y001437D01*
X009769Y001446D01*
X009796Y001459D01*
X009822Y001474D01*
X009846Y001493D01*
X009867Y001514D01*
X009886Y001538D01*
X009901Y001564D01*
X009914Y001591D01*
X009923Y001620D01*
X009928Y001650D01*
X009930Y001680D01*
X009928Y001710D01*
X009923Y001740D01*
X009914Y001769D01*
X009901Y001796D01*
X009886Y001822D01*
X009867Y001846D01*
X009846Y001867D01*
X009822Y001886D01*
X009796Y001901D01*
X009769Y001914D01*
X009740Y001923D01*
X009710Y001928D01*
X009680Y001930D01*
X005820Y005590D02*
X005785Y005555D01*
X005775Y005555D01*
X004380Y005555D01*
D17*
X003930Y004930D03*
X003320Y005540D03*
X005820Y005590D03*
X006555Y007430D03*
X001680Y001305D03*
M02*
