%
M48
M72
T01C0.0130
T02C0.0320
T03C0.0360
T04C0.0400
%
T01
X1600Y1100
X3850Y4850
X3240Y5460
X5230Y5180
X5740Y5510
X9100Y3475
X8725Y2475
T02
X8225Y2475
X9225Y2475
X7850Y3975
X6850Y3975
X5600Y3975
X4600Y3975
X3600Y3975
X2600Y3975
X2600Y2850
X3850Y2850
X6850Y2850
X6850Y6975
X7850Y6975
X5600Y6975
X4600Y6975
X3600Y6975
X2600Y6975
X600Y2850
T03
X1100Y725
X2100Y725
X2100Y1725
X1100Y1725
T04
X1100Y4350
X1100Y5350
X1100Y6350
X1100Y7350
X9100Y7350
X9100Y6350
X9100Y5350
X9100Y4350
M30
