G75*
%MOIN*%
%OFA0B0*%
%FSLAX24Y24*%
%IPPOS*%
%LPD*%
%AMOC8*
5,1,8,0,0,1.08239X$1,22.5*
%
%ADD10C,0.0160*%
%ADD11C,0.0030*%
%ADD12C,0.0070*%
%ADD13C,0.0060*%
%ADD14R,0.0150X0.0200*%
%ADD15R,0.0200X0.0150*%
%ADD16C,0.0120*%
%ADD17C,0.0050*%
%ADD18C,0.0200*%
D10*
X000180Y000180D02*
X000180Y008055D01*
X010180Y008055D01*
X010180Y000180D01*
X000180Y000180D01*
D11*
X002945Y002118D02*
X002993Y002070D01*
X003090Y002070D01*
X003138Y002118D01*
X003240Y002070D02*
X003240Y002360D01*
X003385Y002360D01*
X003433Y002312D01*
X003433Y002215D01*
X003385Y002167D01*
X003240Y002167D01*
X003336Y002167D02*
X003433Y002070D01*
X003534Y002070D02*
X003728Y002263D01*
X003728Y002312D01*
X003679Y002360D01*
X003583Y002360D01*
X003534Y002312D01*
X003829Y002312D02*
X003877Y002360D01*
X003974Y002360D01*
X004022Y002312D01*
X003829Y002118D01*
X003877Y002070D01*
X003974Y002070D01*
X004022Y002118D01*
X004022Y002312D01*
X004124Y002312D02*
X004172Y002360D01*
X004269Y002360D01*
X004317Y002312D01*
X004317Y002263D01*
X004124Y002070D01*
X004317Y002070D01*
X004418Y002118D02*
X004467Y002070D01*
X004563Y002070D01*
X004612Y002118D01*
X004612Y002215D01*
X004563Y002263D01*
X004515Y002263D01*
X004418Y002215D01*
X004418Y002360D01*
X004612Y002360D01*
X003829Y002312D02*
X003829Y002118D01*
X003728Y002070D02*
X003534Y002070D01*
X003138Y002312D02*
X003090Y002360D01*
X002993Y002360D01*
X002945Y002312D01*
X002945Y002118D01*
X003542Y001562D02*
X003542Y001368D01*
X003638Y001465D02*
X003445Y001465D01*
X003445Y000965D02*
X003638Y000965D01*
X003945Y000860D02*
X004090Y000860D01*
X004138Y000812D01*
X004138Y000618D01*
X004090Y000570D01*
X003945Y000570D01*
X003945Y000860D01*
X004240Y000812D02*
X004240Y000618D01*
X004288Y000570D01*
X004385Y000570D01*
X004433Y000618D01*
X004534Y000570D02*
X004728Y000763D01*
X004728Y000812D01*
X004679Y000860D01*
X004583Y000860D01*
X004534Y000812D01*
X004433Y000812D02*
X004385Y000860D01*
X004288Y000860D01*
X004240Y000812D01*
X004534Y000570D02*
X004728Y000570D01*
X004829Y000715D02*
X005022Y000715D01*
X004974Y000570D02*
X004974Y000860D01*
X004829Y000715D01*
X005418Y000715D02*
X005612Y000715D01*
X005713Y000715D02*
X005906Y000715D01*
X006008Y000667D02*
X006104Y000570D01*
X006201Y000667D01*
X006201Y000860D01*
X006008Y000860D02*
X006008Y000667D01*
X005906Y000570D02*
X005906Y000860D01*
X005713Y000860D02*
X005713Y000570D01*
X005612Y000570D02*
X005612Y000860D01*
X005418Y000860D02*
X005418Y000570D01*
X005449Y001125D02*
X005449Y001415D01*
X005595Y001415D01*
X005643Y001367D01*
X005643Y001270D01*
X005595Y001222D01*
X005449Y001222D01*
X005546Y001222D02*
X005643Y001125D01*
X005744Y001173D02*
X005744Y001270D01*
X005792Y001318D01*
X005889Y001318D01*
X005938Y001270D01*
X005938Y001222D01*
X005744Y001222D01*
X005744Y001173D02*
X005792Y001125D01*
X005889Y001125D01*
X006039Y001318D02*
X006135Y001125D01*
X006232Y001318D01*
X006333Y001173D02*
X006382Y001173D01*
X006382Y001125D01*
X006333Y001125D01*
X006333Y001173D01*
X006597Y000860D02*
X006742Y000860D01*
X006790Y000812D01*
X006790Y000715D01*
X006742Y000667D01*
X006597Y000667D01*
X006694Y000667D02*
X006790Y000570D01*
X006892Y000570D02*
X007085Y000570D01*
X006988Y000715D02*
X006892Y000715D01*
X006892Y000860D02*
X006892Y000570D01*
X006597Y000570D02*
X006597Y000860D01*
X006892Y000860D02*
X007085Y000860D01*
X006969Y001125D02*
X006969Y001318D01*
X006872Y001415D01*
X006775Y001318D01*
X006775Y001125D01*
X006775Y001270D02*
X006969Y001270D01*
X007481Y000812D02*
X007529Y000860D01*
X007626Y000860D01*
X007674Y000812D01*
X007775Y000860D02*
X007775Y000570D01*
X007674Y000618D02*
X007626Y000570D01*
X007529Y000570D01*
X007481Y000618D01*
X007481Y000812D01*
X007775Y000715D02*
X007824Y000763D01*
X007921Y000763D01*
X007969Y000715D01*
X007969Y000570D01*
X008070Y000618D02*
X008118Y000667D01*
X008264Y000667D01*
X008264Y000715D02*
X008264Y000570D01*
X008118Y000570D01*
X008070Y000618D01*
X008118Y000763D02*
X008215Y000763D01*
X008264Y000715D01*
X008365Y000570D02*
X008462Y000570D01*
X008413Y000570D02*
X008413Y000860D01*
X008365Y000860D01*
X008561Y000860D02*
X008610Y000860D01*
X008610Y000570D01*
X008658Y000570D02*
X008561Y000570D01*
X008758Y000618D02*
X008758Y000715D01*
X008806Y000763D01*
X008903Y000763D01*
X008951Y000715D01*
X008951Y000667D01*
X008758Y000667D01*
X008758Y000618D02*
X008806Y000570D01*
X008903Y000570D01*
X009052Y000570D02*
X009052Y000763D01*
X009197Y000763D01*
X009246Y000715D01*
X009246Y000570D01*
X009347Y000618D02*
X009395Y000570D01*
X009540Y000570D01*
X009540Y000522D02*
X009540Y000763D01*
X009395Y000763D01*
X009347Y000715D01*
X009347Y000618D01*
X009444Y000473D02*
X009492Y000473D01*
X009540Y000522D01*
X009642Y000618D02*
X009642Y000715D01*
X009690Y000763D01*
X009787Y000763D01*
X009835Y000715D01*
X009835Y000667D01*
X009642Y000667D01*
X009642Y000618D02*
X009690Y000570D01*
X009787Y000570D01*
D12*
X005960Y004815D02*
X004060Y004815D01*
X003210Y004815D01*
X002410Y004815D01*
X002410Y005415D01*
X002610Y005415D01*
X002770Y005255D01*
X002410Y005415D02*
X002410Y006315D01*
X002910Y006315D01*
X002910Y006015D01*
X002610Y005715D01*
X003210Y005515D02*
X003270Y005575D01*
X003210Y005515D02*
X003210Y004815D01*
X004060Y004815D02*
X004210Y004965D01*
X004210Y005135D01*
X004310Y005865D02*
X003860Y006315D01*
X002910Y006315D01*
X003860Y006315D02*
X005210Y006315D01*
X005210Y006215D01*
X005520Y005905D01*
X005510Y005465D02*
X005960Y005465D01*
X005960Y004815D01*
X005400Y005355D02*
X005510Y005465D01*
X005960Y005465D02*
X005960Y006315D01*
X005210Y006315D01*
X004600Y005865D02*
X004310Y005865D01*
X003055Y001805D02*
X002555Y001805D01*
X002805Y001430D02*
X003305Y001430D01*
X003180Y001305D02*
X002930Y001305D01*
X002805Y001180D02*
X003305Y001180D01*
X003180Y001055D02*
X002930Y001055D01*
X003055Y001055D02*
X003055Y000805D01*
X002555Y000805D01*
X003055Y001430D02*
X003055Y001805D01*
D13*
X002330Y002480D02*
X001030Y002480D01*
X001004Y002482D01*
X000978Y002487D01*
X000953Y002495D01*
X000930Y002507D01*
X000908Y002521D01*
X000889Y002539D01*
X000871Y002558D01*
X000857Y002580D01*
X000845Y002603D01*
X000837Y002628D01*
X000832Y002654D01*
X000830Y002680D01*
X001180Y002930D02*
X001560Y002930D01*
X001810Y002930D02*
X002180Y002930D01*
X002530Y002680D02*
X002528Y002654D01*
X002523Y002628D01*
X002515Y002603D01*
X002503Y002580D01*
X002489Y002558D01*
X002471Y002539D01*
X002452Y002521D01*
X002430Y002507D01*
X002407Y002495D01*
X002382Y002487D01*
X002356Y002482D01*
X002330Y002480D01*
X002530Y003180D02*
X002528Y003206D01*
X002523Y003232D01*
X002515Y003257D01*
X002503Y003280D01*
X002489Y003302D01*
X002471Y003321D01*
X002452Y003339D01*
X002430Y003353D01*
X002407Y003365D01*
X002382Y003373D01*
X002356Y003378D01*
X002330Y003380D01*
X001030Y003380D01*
X001004Y003378D01*
X000978Y003373D01*
X000953Y003365D01*
X000930Y003353D01*
X000908Y003339D01*
X000889Y003321D01*
X000871Y003302D01*
X000857Y003280D01*
X000845Y003257D01*
X000837Y003232D01*
X000832Y003206D01*
X000830Y003180D01*
X004430Y003230D02*
X004430Y002630D01*
X004432Y002613D01*
X004436Y002596D01*
X004443Y002580D01*
X004453Y002566D01*
X004466Y002553D01*
X004480Y002543D01*
X004496Y002536D01*
X004513Y002532D01*
X004530Y002530D01*
X004680Y002530D01*
X004730Y002580D01*
X006130Y002580D01*
X006180Y002530D01*
X006330Y002530D01*
X006347Y002532D01*
X006364Y002536D01*
X006380Y002543D01*
X006394Y002553D01*
X006407Y002566D01*
X006417Y002580D01*
X006424Y002596D01*
X006428Y002613D01*
X006430Y002630D01*
X006430Y003230D01*
X006428Y003247D01*
X006424Y003264D01*
X006417Y003280D01*
X006407Y003294D01*
X006394Y003307D01*
X006380Y003317D01*
X006364Y003324D01*
X006347Y003328D01*
X006330Y003330D01*
X006180Y003330D01*
X006130Y003280D01*
X004730Y003280D01*
X004680Y003330D01*
X004530Y003330D01*
X004513Y003328D01*
X004496Y003324D01*
X004480Y003317D01*
X004466Y003307D01*
X004453Y003294D01*
X004443Y003280D01*
X004436Y003264D01*
X004432Y003247D01*
X004430Y003230D01*
X006530Y004655D02*
X006530Y004805D01*
X006580Y004855D01*
X006580Y006255D01*
X006530Y006305D01*
X006530Y006455D01*
X006532Y006472D01*
X006536Y006489D01*
X006543Y006505D01*
X006553Y006519D01*
X006566Y006532D01*
X006580Y006542D01*
X006596Y006549D01*
X006613Y006553D01*
X006630Y006555D01*
X007230Y006555D01*
X007247Y006553D01*
X007264Y006549D01*
X007280Y006542D01*
X007294Y006532D01*
X007307Y006519D01*
X007317Y006505D01*
X007324Y006489D01*
X007328Y006472D01*
X007330Y006455D01*
X007330Y006305D01*
X007280Y006255D01*
X007280Y004855D01*
X007330Y004805D01*
X007330Y004655D01*
X007328Y004638D01*
X007324Y004621D01*
X007317Y004605D01*
X007307Y004591D01*
X007294Y004578D01*
X007280Y004568D01*
X007264Y004561D01*
X007247Y004557D01*
X007230Y004555D01*
X006630Y004555D01*
X006613Y004557D01*
X006596Y004561D01*
X006580Y004568D01*
X006566Y004578D01*
X006553Y004591D01*
X006543Y004605D01*
X006536Y004621D01*
X006532Y004638D01*
X006530Y004655D01*
X007530Y004655D02*
X007530Y004805D01*
X007580Y004855D01*
X007580Y006255D01*
X007530Y006305D01*
X007530Y006455D01*
X007532Y006472D01*
X007536Y006489D01*
X007543Y006505D01*
X007553Y006519D01*
X007566Y006532D01*
X007580Y006542D01*
X007596Y006549D01*
X007613Y006553D01*
X007630Y006555D01*
X008230Y006555D01*
X008247Y006553D01*
X008264Y006549D01*
X008280Y006542D01*
X008294Y006532D01*
X008307Y006519D01*
X008317Y006505D01*
X008324Y006489D01*
X008328Y006472D01*
X008330Y006455D01*
X008330Y006305D01*
X008280Y006255D01*
X008280Y004855D01*
X008330Y004805D01*
X008330Y004655D01*
X008328Y004638D01*
X008324Y004621D01*
X008317Y004605D01*
X008307Y004591D01*
X008294Y004578D01*
X008280Y004568D01*
X008264Y004561D01*
X008247Y004557D01*
X008230Y004555D01*
X007630Y004555D01*
X007613Y004557D01*
X007596Y004561D01*
X007580Y004568D01*
X007566Y004578D01*
X007553Y004591D01*
X007543Y004605D01*
X007536Y004621D01*
X007532Y004638D01*
X007530Y004655D01*
X007805Y002555D02*
X007807Y002618D01*
X007813Y002680D01*
X007823Y002742D01*
X007836Y002804D01*
X007854Y002864D01*
X007875Y002923D01*
X007900Y002981D01*
X007929Y003037D01*
X007961Y003091D01*
X007996Y003143D01*
X008034Y003192D01*
X008076Y003240D01*
X008120Y003284D01*
X008168Y003326D01*
X008217Y003364D01*
X008269Y003399D01*
X008323Y003431D01*
X008379Y003460D01*
X008437Y003485D01*
X008496Y003506D01*
X008556Y003524D01*
X008618Y003537D01*
X008680Y003547D01*
X008742Y003553D01*
X008805Y003555D01*
X008868Y003553D01*
X008930Y003547D01*
X008992Y003537D01*
X009054Y003524D01*
X009114Y003506D01*
X009173Y003485D01*
X009231Y003460D01*
X009287Y003431D01*
X009341Y003399D01*
X009393Y003364D01*
X009442Y003326D01*
X009490Y003284D01*
X009534Y003240D01*
X009576Y003192D01*
X009614Y003143D01*
X009649Y003091D01*
X009681Y003037D01*
X009710Y002981D01*
X009735Y002923D01*
X009756Y002864D01*
X009774Y002804D01*
X009787Y002742D01*
X009797Y002680D01*
X009803Y002618D01*
X009805Y002555D01*
X009803Y002492D01*
X009797Y002430D01*
X009787Y002368D01*
X009774Y002306D01*
X009756Y002246D01*
X009735Y002187D01*
X009710Y002129D01*
X009681Y002073D01*
X009649Y002019D01*
X009614Y001967D01*
X009576Y001918D01*
X009534Y001870D01*
X009490Y001826D01*
X009442Y001784D01*
X009393Y001746D01*
X009341Y001711D01*
X009287Y001679D01*
X009231Y001650D01*
X009173Y001625D01*
X009114Y001604D01*
X009054Y001586D01*
X008992Y001573D01*
X008930Y001563D01*
X008868Y001557D01*
X008805Y001555D01*
X008742Y001557D01*
X008680Y001563D01*
X008618Y001573D01*
X008556Y001586D01*
X008496Y001604D01*
X008437Y001625D01*
X008379Y001650D01*
X008323Y001679D01*
X008269Y001711D01*
X008217Y001746D01*
X008168Y001784D01*
X008120Y001826D01*
X008076Y001870D01*
X008034Y001918D01*
X007996Y001967D01*
X007961Y002019D01*
X007929Y002073D01*
X007900Y002129D01*
X007875Y002187D01*
X007854Y002246D01*
X007836Y002306D01*
X007823Y002368D01*
X007813Y002430D01*
X007807Y002492D01*
X007805Y002555D01*
D14*
X006505Y002930D03*
X004355Y002930D03*
D15*
X006930Y004480D03*
X007930Y004480D03*
X007930Y006630D03*
X006930Y006630D03*
D16*
X001810Y003230D02*
X001810Y002930D01*
X001810Y002630D01*
X001560Y002630D02*
X001560Y002930D01*
X001560Y003230D01*
D17*
X002747Y005165D02*
X002749Y005186D01*
X002755Y005206D01*
X002764Y005224D01*
X002776Y005241D01*
X002792Y005255D01*
X002810Y005266D01*
X002829Y005274D01*
X002850Y005278D01*
X002870Y005278D01*
X002891Y005274D01*
X002910Y005266D01*
X002928Y005255D01*
X002944Y005241D01*
X002956Y005224D01*
X002965Y005206D01*
X002971Y005186D01*
X002973Y005165D01*
X002971Y005144D01*
X002965Y005124D01*
X002956Y005106D01*
X002944Y005089D01*
X002928Y005075D01*
X002910Y005064D01*
X002891Y005056D01*
X002870Y005052D01*
X002850Y005052D01*
X002829Y005056D01*
X002810Y005064D01*
X002792Y005075D01*
X002776Y005089D01*
X002764Y005106D01*
X002755Y005124D01*
X002749Y005144D01*
X002747Y005165D01*
X003247Y005665D02*
X003249Y005686D01*
X003255Y005706D01*
X003264Y005724D01*
X003276Y005741D01*
X003292Y005755D01*
X003310Y005766D01*
X003329Y005774D01*
X003350Y005778D01*
X003370Y005778D01*
X003391Y005774D01*
X003410Y005766D01*
X003428Y005755D01*
X003444Y005741D01*
X003456Y005724D01*
X003465Y005706D01*
X003471Y005686D01*
X003473Y005665D01*
X003471Y005644D01*
X003465Y005624D01*
X003456Y005606D01*
X003444Y005589D01*
X003428Y005575D01*
X003410Y005564D01*
X003391Y005556D01*
X003370Y005552D01*
X003350Y005552D01*
X003329Y005556D01*
X003310Y005564D01*
X003292Y005575D01*
X003276Y005589D01*
X003264Y005606D01*
X003255Y005624D01*
X003249Y005644D01*
X003247Y005665D01*
X002489Y005715D02*
X002491Y005737D01*
X002497Y005758D01*
X002506Y005777D01*
X002519Y005795D01*
X002535Y005810D01*
X002553Y005822D01*
X002573Y005830D01*
X002594Y005835D01*
X002615Y005836D01*
X002637Y005833D01*
X002658Y005826D01*
X002677Y005816D01*
X002694Y005802D01*
X002708Y005786D01*
X002719Y005767D01*
X002727Y005747D01*
X002731Y005726D01*
X002731Y005704D01*
X002727Y005683D01*
X002719Y005663D01*
X002708Y005644D01*
X002694Y005628D01*
X002677Y005614D01*
X002658Y005604D01*
X002637Y005597D01*
X002615Y005594D01*
X002594Y005595D01*
X002573Y005600D01*
X002553Y005608D01*
X002535Y005620D01*
X002519Y005635D01*
X002506Y005653D01*
X002497Y005672D01*
X002491Y005693D01*
X002489Y005715D01*
X004096Y005265D02*
X004098Y005286D01*
X004104Y005306D01*
X004113Y005325D01*
X004126Y005342D01*
X004141Y005356D01*
X004159Y005367D01*
X004179Y005375D01*
X004199Y005379D01*
X004221Y005379D01*
X004241Y005375D01*
X004261Y005367D01*
X004279Y005356D01*
X004294Y005342D01*
X004307Y005325D01*
X004316Y005306D01*
X004322Y005286D01*
X004324Y005265D01*
X004322Y005244D01*
X004316Y005224D01*
X004307Y005205D01*
X004294Y005188D01*
X004279Y005174D01*
X004261Y005163D01*
X004241Y005155D01*
X004221Y005151D01*
X004199Y005151D01*
X004179Y005155D01*
X004159Y005163D01*
X004141Y005174D01*
X004126Y005188D01*
X004113Y005205D01*
X004104Y005224D01*
X004098Y005244D01*
X004096Y005265D01*
X004546Y005865D02*
X004548Y005886D01*
X004554Y005906D01*
X004563Y005925D01*
X004576Y005942D01*
X004591Y005956D01*
X004609Y005967D01*
X004629Y005975D01*
X004649Y005979D01*
X004671Y005979D01*
X004691Y005975D01*
X004711Y005967D01*
X004729Y005956D01*
X004744Y005942D01*
X004757Y005925D01*
X004766Y005906D01*
X004772Y005886D01*
X004774Y005865D01*
X004772Y005844D01*
X004766Y005824D01*
X004757Y005805D01*
X004744Y005788D01*
X004729Y005774D01*
X004711Y005763D01*
X004691Y005755D01*
X004671Y005751D01*
X004649Y005751D01*
X004629Y005755D01*
X004609Y005763D01*
X004591Y005774D01*
X004576Y005788D01*
X004563Y005805D01*
X004554Y005824D01*
X004548Y005844D01*
X004546Y005865D01*
X005193Y005265D02*
X005195Y005286D01*
X005200Y005306D01*
X005210Y005325D01*
X005222Y005342D01*
X005237Y005356D01*
X005255Y005368D01*
X005274Y005376D01*
X005294Y005381D01*
X005315Y005382D01*
X005336Y005379D01*
X005356Y005373D01*
X005374Y005363D01*
X005391Y005350D01*
X005405Y005334D01*
X005415Y005316D01*
X005423Y005296D01*
X005427Y005275D01*
X005427Y005255D01*
X005423Y005234D01*
X005415Y005214D01*
X005405Y005196D01*
X005391Y005180D01*
X005374Y005167D01*
X005356Y005157D01*
X005336Y005151D01*
X005315Y005148D01*
X005294Y005149D01*
X005274Y005154D01*
X005255Y005162D01*
X005237Y005174D01*
X005222Y005188D01*
X005210Y005205D01*
X005200Y005224D01*
X005195Y005244D01*
X005193Y005265D01*
X005496Y005815D02*
X005498Y005836D01*
X005504Y005856D01*
X005513Y005875D01*
X005526Y005892D01*
X005541Y005906D01*
X005559Y005917D01*
X005579Y005925D01*
X005599Y005929D01*
X005621Y005929D01*
X005641Y005925D01*
X005661Y005917D01*
X005679Y005906D01*
X005694Y005892D01*
X005707Y005875D01*
X005716Y005856D01*
X005722Y005836D01*
X005724Y005815D01*
X005722Y005794D01*
X005716Y005774D01*
X005707Y005755D01*
X005694Y005738D01*
X005679Y005724D01*
X005661Y005713D01*
X005641Y005705D01*
X005621Y005701D01*
X005599Y005701D01*
X005579Y005705D01*
X005559Y005713D01*
X005541Y005724D01*
X005526Y005738D01*
X005513Y005755D01*
X005504Y005774D01*
X005498Y005794D01*
X005496Y005815D01*
D18*
X005371Y005565D02*
X005004Y005565D01*
X004541Y005382D02*
X004541Y005198D01*
X004357Y005015D01*
X003807Y005015D01*
X003807Y006116D01*
X004357Y006116D01*
X004541Y005932D01*
X004541Y005749D01*
X004357Y005565D01*
X003807Y005565D01*
X004357Y005565D02*
X004541Y005382D01*
X005004Y005015D02*
X005738Y005015D01*
X005004Y005015D02*
X005004Y006116D01*
X005738Y006116D01*
X003344Y006116D02*
X002610Y005382D01*
X002793Y005565D02*
X003344Y005015D01*
X002610Y005015D02*
X002610Y006116D01*
M02*
