G75*
%MOIN*%
%OFA0B0*%
%FSLAX24Y24*%
%IPPOS*%
%LPD*%
%AMOC8*
5,1,8,0,0,1.08239X$1,22.5*
%
%ADD10OC8,0.0540*%
%ADD11C,0.0660*%
%ADD12C,0.0540*%
%ADD13OC8,0.0600*%
%ADD14C,0.0330*%
D10*
X000680Y002930D03*
X002680Y002930D03*
X003930Y002930D03*
X006930Y002930D03*
X006930Y004055D03*
X007930Y004055D03*
X008305Y002555D03*
X009305Y002555D03*
X007930Y007055D03*
X006930Y007055D03*
D11*
X008880Y007430D02*
X009480Y007430D01*
X009480Y006430D02*
X008880Y006430D01*
X008880Y005430D02*
X009480Y005430D01*
X009480Y004430D02*
X008880Y004430D01*
X001480Y004430D02*
X000880Y004430D01*
X000880Y005430D02*
X001480Y005430D01*
X001480Y006430D02*
X000880Y006430D01*
X000880Y007430D02*
X001480Y007430D01*
D12*
X002680Y007295D02*
X002680Y006815D01*
X003680Y006815D02*
X003680Y007295D01*
X004680Y007295D02*
X004680Y006815D01*
X005680Y006815D02*
X005680Y007295D01*
X005680Y004295D02*
X005680Y003815D01*
X004680Y003815D02*
X004680Y004295D01*
X003680Y004295D02*
X003680Y003815D01*
X002680Y003815D02*
X002680Y004295D01*
D13*
X001180Y000805D03*
X002180Y000805D03*
X002180Y001805D03*
X001180Y001805D03*
D14*
X001680Y001305D03*
X003930Y004930D03*
X003320Y005540D03*
X005820Y005590D03*
X006555Y007430D03*
M02*
