G75*
%MOIN*%
%OFA0B0*%
%FSLAX24Y24*%
%IPPOS*%
%LPD*%
%AMOC8*
5,1,8,0,0,1.08239X$1,22.5*
%
%ADD10OC8,0.0480*%
%ADD11C,0.0600*%
%ADD12C,0.0480*%
%ADD13OC8,0.0540*%
%ADD14C,0.0270*%
%ADD15C,0.0060*%
D10*
X000600Y002850D03*
X002600Y002850D03*
X003850Y002850D03*
X006850Y002850D03*
X008225Y002475D03*
X009225Y002475D03*
X007850Y003975D03*
X006850Y003975D03*
X006850Y006975D03*
X007850Y006975D03*
D11*
X008800Y007350D02*
X009400Y007350D01*
X009400Y006350D02*
X008800Y006350D01*
X008800Y005350D02*
X009400Y005350D01*
X009400Y004350D02*
X008800Y004350D01*
X001400Y004350D02*
X000800Y004350D01*
X000800Y005350D02*
X001400Y005350D01*
X001400Y006350D02*
X000800Y006350D01*
X000800Y007350D02*
X001400Y007350D01*
D12*
X002600Y007215D02*
X002600Y006735D01*
X003600Y006735D02*
X003600Y007215D01*
X004600Y007215D02*
X004600Y006735D01*
X005600Y006735D02*
X005600Y007215D01*
X005600Y004215D02*
X005600Y003735D01*
X004600Y003735D02*
X004600Y004215D01*
X003600Y004215D02*
X003600Y003735D01*
X002600Y003735D02*
X002600Y004215D01*
D13*
X001100Y000725D03*
X002100Y000725D03*
X002100Y001725D03*
X001100Y001725D03*
D14*
X001600Y001100D03*
X003850Y004850D03*
X003240Y005460D03*
X005230Y005180D03*
X005740Y005510D03*
X009100Y003475D03*
X008725Y002475D03*
D15*
X008725Y002225D01*
X008975Y001975D01*
X009225Y001975D01*
X009246Y001973D01*
X009266Y001968D01*
X009284Y001960D01*
X009302Y001949D01*
X009317Y001935D01*
X009330Y001918D01*
X009339Y001900D01*
X009346Y001881D01*
X009350Y001860D01*
X009350Y001840D01*
X009346Y001819D01*
X009339Y001800D01*
X009330Y001782D01*
X009317Y001765D01*
X009302Y001751D01*
X009284Y001740D01*
X009266Y001732D01*
X009246Y001727D01*
X009225Y001725D01*
X007975Y001725D01*
X007955Y001727D01*
X007936Y001731D01*
X007918Y001739D01*
X007902Y001749D01*
X007887Y001762D01*
X007874Y001777D01*
X007864Y001793D01*
X007856Y001811D01*
X007852Y001830D01*
X007850Y001850D01*
X007850Y002225D01*
X007848Y002246D01*
X007843Y002266D01*
X007835Y002284D01*
X007824Y002302D01*
X007810Y002317D01*
X007793Y002330D01*
X007775Y002339D01*
X007756Y002346D01*
X007735Y002350D01*
X007715Y002350D01*
X007694Y002346D01*
X007675Y002339D01*
X007657Y002330D01*
X007640Y002317D01*
X007626Y002302D01*
X007615Y002284D01*
X007607Y002266D01*
X007602Y002246D01*
X007600Y002225D01*
X007600Y001100D01*
X007602Y001079D01*
X007607Y001059D01*
X007615Y001041D01*
X007626Y001023D01*
X007640Y001008D01*
X007657Y000995D01*
X007675Y000986D01*
X007694Y000979D01*
X007715Y000975D01*
X007735Y000975D01*
X007756Y000979D01*
X007775Y000986D01*
X007793Y000995D01*
X007810Y001008D01*
X007824Y001023D01*
X007835Y001041D01*
X007843Y001059D01*
X007848Y001079D01*
X007850Y001100D01*
X007850Y001350D01*
X007852Y001370D01*
X007856Y001389D01*
X007864Y001407D01*
X007874Y001423D01*
X007887Y001438D01*
X007902Y001451D01*
X007918Y001461D01*
X007936Y001469D01*
X007955Y001473D01*
X007975Y001475D01*
X009600Y001475D01*
X009621Y001473D01*
X009641Y001468D01*
X009659Y001460D01*
X009677Y001449D01*
X009692Y001435D01*
X009705Y001418D01*
X009714Y001400D01*
X009721Y001381D01*
X009725Y001360D01*
X009725Y001340D01*
X009721Y001319D01*
X009714Y001300D01*
X009705Y001282D01*
X009692Y001265D01*
X009677Y001251D01*
X009659Y001240D01*
X009641Y001232D01*
X009621Y001227D01*
X009600Y001225D01*
X008225Y001225D01*
X008205Y001223D01*
X008186Y001219D01*
X008168Y001211D01*
X008152Y001201D01*
X008137Y001188D01*
X008124Y001173D01*
X008114Y001157D01*
X008106Y001139D01*
X008102Y001120D01*
X008100Y001100D01*
X008100Y000600D01*
X007975Y000475D02*
X007955Y000477D01*
X007936Y000481D01*
X007918Y000489D01*
X007902Y000499D01*
X007887Y000512D01*
X007874Y000527D01*
X007864Y000543D01*
X007856Y000561D01*
X007852Y000580D01*
X007850Y000600D01*
X007725Y000725D02*
X007705Y000723D01*
X007686Y000719D01*
X007668Y000711D01*
X007652Y000701D01*
X007637Y000688D01*
X007624Y000673D01*
X007614Y000657D01*
X007606Y000639D01*
X007602Y000620D01*
X007600Y000600D01*
X007475Y000475D02*
X007455Y000477D01*
X007436Y000481D01*
X007418Y000489D01*
X007402Y000499D01*
X007387Y000512D01*
X007374Y000527D01*
X007364Y000543D01*
X007356Y000561D01*
X007352Y000580D01*
X007350Y000600D01*
X007350Y002100D01*
X007348Y002121D01*
X007343Y002141D01*
X007335Y002159D01*
X007324Y002177D01*
X007310Y002192D01*
X007293Y002205D01*
X007275Y002214D01*
X007256Y002221D01*
X007235Y002225D01*
X007215Y002225D01*
X007194Y002221D01*
X007175Y002214D01*
X007157Y002205D01*
X007140Y002192D01*
X007126Y002177D01*
X007115Y002159D01*
X007107Y002141D01*
X007102Y002121D01*
X007100Y002100D01*
X007100Y000600D01*
X007098Y000579D01*
X007093Y000559D01*
X007085Y000541D01*
X007074Y000523D01*
X007060Y000508D01*
X007043Y000495D01*
X007025Y000486D01*
X007006Y000479D01*
X006985Y000475D01*
X006965Y000475D01*
X006944Y000479D01*
X006925Y000486D01*
X006907Y000495D01*
X006890Y000508D01*
X006876Y000523D01*
X006865Y000541D01*
X006857Y000559D01*
X006852Y000579D01*
X006850Y000600D01*
X006850Y002225D01*
X006848Y002246D01*
X006843Y002266D01*
X006835Y002284D01*
X006824Y002302D01*
X006810Y002317D01*
X006793Y002330D01*
X006775Y002339D01*
X006756Y002346D01*
X006735Y002350D01*
X006715Y002350D01*
X006694Y002346D01*
X006675Y002339D01*
X006657Y002330D01*
X006640Y002317D01*
X006626Y002302D01*
X006615Y002284D01*
X006607Y002266D01*
X006602Y002246D01*
X006600Y002225D01*
X006600Y000600D01*
X006598Y000580D01*
X006594Y000561D01*
X006586Y000543D01*
X006576Y000527D01*
X006563Y000512D01*
X006548Y000499D01*
X006532Y000489D01*
X006514Y000481D01*
X006495Y000477D01*
X006475Y000475D01*
X002725Y000475D01*
X002704Y000477D01*
X002684Y000482D01*
X002666Y000490D01*
X002648Y000501D01*
X002633Y000515D01*
X002620Y000532D01*
X002611Y000550D01*
X002604Y000569D01*
X002600Y000590D01*
X002600Y000610D01*
X002604Y000631D01*
X002611Y000650D01*
X002620Y000668D01*
X002633Y000685D01*
X002648Y000699D01*
X002666Y000710D01*
X002684Y000718D01*
X002704Y000723D01*
X002725Y000725D01*
X006225Y000725D01*
X006246Y000727D01*
X006266Y000732D01*
X006284Y000740D01*
X006302Y000751D01*
X006317Y000765D01*
X006330Y000782D01*
X006339Y000800D01*
X006346Y000819D01*
X006350Y000840D01*
X006350Y000860D01*
X006346Y000881D01*
X006339Y000900D01*
X006330Y000918D01*
X006317Y000935D01*
X006302Y000949D01*
X006284Y000960D01*
X006266Y000968D01*
X006246Y000973D01*
X006225Y000975D01*
X002725Y000975D01*
X002704Y000977D01*
X002684Y000982D01*
X002666Y000990D01*
X002648Y001001D01*
X002633Y001015D01*
X002620Y001032D01*
X002611Y001050D01*
X002604Y001069D01*
X002600Y001090D01*
X002600Y001110D01*
X002604Y001131D01*
X002611Y001150D01*
X002620Y001168D01*
X002633Y001185D01*
X002648Y001199D01*
X002666Y001210D01*
X002684Y001218D01*
X002704Y001223D01*
X002725Y001225D01*
X006225Y001225D01*
X006245Y001227D01*
X006264Y001231D01*
X006282Y001239D01*
X006298Y001249D01*
X006313Y001262D01*
X006326Y001277D01*
X006336Y001293D01*
X006344Y001311D01*
X006348Y001330D01*
X006350Y001350D01*
X006350Y002100D01*
X006350Y002975D01*
X006348Y002996D01*
X006343Y003016D01*
X006335Y003034D01*
X006324Y003052D01*
X006310Y003067D01*
X006293Y003080D01*
X006275Y003089D01*
X006256Y003096D01*
X006235Y003100D01*
X006215Y003100D01*
X006194Y003096D01*
X006175Y003089D01*
X006157Y003080D01*
X006140Y003067D01*
X006126Y003052D01*
X006115Y003034D01*
X006107Y003016D01*
X006102Y002996D01*
X006100Y002975D01*
X006100Y001600D01*
X005975Y001475D01*
X005850Y001475D01*
X005725Y001600D01*
X005725Y002975D01*
X005600Y003100D01*
X005475Y003100D01*
X005350Y002975D01*
X005350Y001600D01*
X005225Y001475D01*
X005100Y001475D01*
X004975Y001600D01*
X004975Y002975D01*
X004850Y003100D01*
X004725Y003100D01*
X004600Y002975D01*
X004600Y001600D01*
X004475Y001475D01*
X004350Y001475D01*
X004225Y001600D01*
X004225Y003100D01*
X004100Y003225D01*
X002225Y003225D01*
X002100Y003100D01*
X002100Y002350D01*
X001975Y002225D01*
X000850Y002225D01*
X000725Y002100D01*
X000725Y001350D01*
X000850Y001225D01*
X001225Y001225D01*
X001475Y001475D01*
X001725Y001475D01*
X001850Y001350D01*
X001975Y001225D01*
X002225Y001225D01*
X002350Y001350D01*
X002475Y001475D01*
X002850Y001850D01*
X002850Y001975D01*
X002850Y002475D01*
X002975Y002600D01*
X003100Y002600D01*
X003225Y002475D01*
X003225Y001600D01*
X003350Y001475D01*
X003475Y001475D01*
X003600Y001600D01*
X003600Y002350D01*
X003725Y002475D01*
X003850Y002475D01*
X003975Y002350D01*
X003975Y001475D01*
X003850Y001350D01*
X002600Y001350D01*
X002350Y001100D01*
X001600Y001100D01*
X001100Y000725D02*
X000600Y001225D01*
X000600Y002850D01*
X000600Y003850D01*
X001100Y004350D01*
X001850Y004350D01*
X002100Y004600D01*
X003725Y004600D01*
X004975Y004600D01*
X005600Y003975D01*
X006225Y003975D01*
X006475Y004225D01*
X006475Y004975D01*
X005940Y005510D01*
X005740Y005510D01*
X005700Y005470D01*
X005690Y005470D01*
X004670Y005470D01*
X003250Y005470D01*
X003240Y005460D01*
X003225Y005475D01*
X002100Y005475D01*
X001975Y005600D01*
X001975Y007225D01*
X001850Y007350D01*
X001350Y007350D01*
X001100Y007350D01*
X000600Y007850D02*
X000475Y007725D01*
X000350Y007600D01*
X000350Y006100D01*
X000600Y005850D01*
X001725Y005850D01*
X001850Y005725D01*
X001850Y005475D01*
X002100Y005225D01*
X003725Y005225D01*
X004850Y005225D01*
X005185Y005225D01*
X005230Y005180D01*
X004725Y005725D02*
X004600Y005600D01*
X004475Y005600D01*
X004350Y005725D01*
X004350Y005850D01*
X004350Y005975D01*
X004225Y006100D01*
X004100Y006100D01*
X003975Y005975D01*
X003975Y005850D01*
X003975Y005725D01*
X003850Y005600D01*
X003725Y005600D01*
X003600Y005725D01*
X003600Y005975D01*
X003475Y006100D01*
X003350Y006100D01*
X003225Y005975D01*
X003225Y005850D01*
X002975Y005600D01*
X002850Y005600D01*
X002725Y005725D01*
X002725Y005850D01*
X002725Y005975D01*
X002600Y006100D01*
X002475Y006100D01*
X002350Y005975D01*
X002225Y005975D01*
X002100Y006100D01*
X002100Y007725D01*
X001975Y007850D01*
X000600Y007850D01*
X002225Y007725D02*
X002225Y006475D01*
X002475Y006225D01*
X004350Y006225D01*
X004475Y006100D01*
X004725Y005850D01*
X004725Y005725D01*
X004975Y005850D02*
X004600Y006225D01*
X004600Y006975D01*
X005100Y006350D02*
X005975Y006350D01*
X006475Y005850D01*
X007100Y005225D01*
X007600Y005225D01*
X008225Y005850D01*
X008225Y005975D01*
X008100Y006100D01*
X007975Y006100D01*
X007850Y005975D01*
X007350Y005475D01*
X007100Y005475D01*
X006850Y005725D01*
X006225Y006350D01*
X006225Y006475D01*
X006350Y006600D01*
X007850Y006600D01*
X008350Y006600D01*
X008600Y006850D01*
X009725Y006850D01*
X009850Y006975D01*
X009850Y007600D01*
X009850Y007725D01*
X009725Y007850D01*
X002350Y007850D01*
X002225Y007725D01*
X002600Y007475D02*
X002725Y007600D01*
X007975Y007600D01*
X008225Y007350D01*
X009100Y007350D01*
X007850Y006975D02*
X005600Y006975D01*
X005100Y006350D02*
X004975Y006225D01*
X004975Y006100D01*
X005100Y005975D01*
X006100Y005975D01*
X006850Y005225D01*
X006975Y005100D01*
X007725Y005100D01*
X008475Y005850D01*
X009725Y005850D01*
X009850Y005725D01*
X009850Y004975D01*
X009725Y004850D01*
X009600Y004850D01*
X007975Y004850D01*
X007850Y004725D01*
X007850Y004600D01*
X008100Y004350D01*
X008225Y004225D01*
X008225Y003725D01*
X008100Y003600D01*
X007725Y003600D01*
X007475Y003350D01*
X007350Y003225D01*
X007350Y003100D01*
X007475Y002975D01*
X008350Y002975D01*
X008725Y003350D01*
X008850Y003475D01*
X009100Y003475D01*
X008225Y002475D02*
X007225Y002475D01*
X006850Y002850D01*
X007225Y003350D02*
X007850Y003975D01*
X007225Y003975D01*
X006975Y003975D01*
X006850Y003975D02*
X006850Y004975D01*
X006100Y005725D01*
X005975Y005850D01*
X004975Y005850D01*
X003850Y004850D02*
X001600Y004850D01*
X001100Y005350D01*
X002600Y006975D02*
X002600Y007475D01*
X006850Y006975D02*
X007850Y006975D01*
X008225Y005350D02*
X009100Y005350D01*
X008225Y005350D02*
X006850Y003975D01*
X007225Y003350D02*
X004475Y003350D01*
X004225Y003350D01*
X003600Y003975D01*
X003850Y002850D02*
X002600Y002850D01*
X002600Y002225D01*
X002100Y001725D01*
X001100Y001725D01*
X001100Y000725D02*
X002100Y000725D01*
X007475Y000475D02*
X007495Y000477D01*
X007514Y000481D01*
X007532Y000489D01*
X007548Y000499D01*
X007563Y000512D01*
X007576Y000527D01*
X007586Y000543D01*
X007594Y000561D01*
X007598Y000580D01*
X007600Y000600D01*
X007725Y000725D02*
X007745Y000723D01*
X007764Y000719D01*
X007782Y000711D01*
X007798Y000701D01*
X007813Y000688D01*
X007826Y000673D01*
X007836Y000657D01*
X007844Y000639D01*
X007848Y000620D01*
X007850Y000600D01*
X007975Y000475D02*
X007995Y000477D01*
X008014Y000481D01*
X008032Y000489D01*
X008048Y000499D01*
X008063Y000512D01*
X008076Y000527D01*
X008086Y000543D01*
X008094Y000561D01*
X008098Y000580D01*
X008100Y000600D01*
M02*
