G75*
%MOIN*%
%OFA0B0*%
%FSLAX24Y24*%
%IPPOS*%
%LPD*%
%AMOC8*
5,1,8,0,0,1.08239X$1,22.5*
%
%ADD10C,0.0030*%
D10*
X005540Y005268D02*
X005540Y005558D01*
X005395Y005558D01*
X005347Y005510D01*
X005347Y005413D01*
X005395Y005365D01*
X005540Y005365D01*
X005642Y005413D02*
X005642Y005607D01*
X005690Y005655D01*
X005787Y005655D01*
X005835Y005607D01*
X005835Y005413D01*
X005787Y005365D01*
X005690Y005365D01*
X005642Y005413D01*
X005246Y005413D02*
X005246Y005510D01*
X005197Y005558D01*
X005101Y005558D01*
X005052Y005510D01*
X005052Y005462D01*
X005246Y005462D01*
X005246Y005413D02*
X005197Y005365D01*
X005101Y005365D01*
X004951Y005365D02*
X004951Y005558D01*
X004806Y005558D01*
X004758Y005510D01*
X004758Y005365D01*
X003335Y005365D02*
X003335Y005655D01*
X003238Y005558D01*
X003142Y005655D01*
X003142Y005365D01*
X003040Y005413D02*
X003040Y005510D01*
X002992Y005558D01*
X002895Y005558D01*
X002847Y005510D01*
X002847Y005462D01*
X003040Y005462D01*
X003040Y005413D02*
X002992Y005365D01*
X002895Y005365D01*
M02*
